<?xml version="1.0" encoding="UTF-8"?>
<!DOCTYPE svg PUBLIC "-//W3C//DTD SVG 1.1//EN" "http://www.w3.org/Graphics/SVG/1.1/DTD/svg11.dtd">
<!-- Creator: CorelDRAW (Versión de evaluación) -->
<svg xmlns="http://www.w3.org/2000/svg" xml:space="preserve" width="512px" height="161px" version="1.1" style="shape-rendering:geometricPrecision; text-rendering:geometricPrecision; image-rendering:optimizeQuality; fill-rule:evenodd; clip-rule:evenodd"
viewBox="0 0 511.55 161.2"
 xmlns:xlink="http://www.w3.org/1999/xlink"
 xmlns:xodm="http://www.corel.com/coreldraw/odm/2003">
 <defs>
  <style type="text/css">
   <![CDATA[
    .fil0 {fill:#04004D}
    .fil1 {fill:#8F66FF}
   ]]>
  </style>
 </defs>
 <g id="Capa_x0020_1">
  <metadata id="CorelCorpID_0Corel-Layer"/>
  <g id="_2033149307424">
   <path class="fil0" d="M0 88.56c0,-14.01 3.16,-26.56 9.49,-37.65 6.32,-11.09 14.96,-19.72 25.91,-25.91 10.95,-6.19 23.23,-9.29 36.83,-9.29 15.92,0 29.86,4.08 41.83,12.24 11.97,8.17 20.34,19.46 25.1,33.88l-32.85 0c-3.27,-6.8 -7.86,-11.91 -13.77,-15.31 -5.92,-3.4 -12.76,-5.1 -20.51,-5.1 -8.3,0 -15.68,1.94 -22.14,5.82 -6.46,3.87 -11.49,9.35 -15.1,16.42 -3.6,7.08 -5.41,15.38 -5.41,24.9 0,9.38 1.81,17.65 5.41,24.79 3.61,7.14 8.64,12.65 15.1,16.53 6.46,3.87 13.84,5.81 22.14,5.81 7.75,0 14.59,-1.73 20.51,-5.2 5.91,-3.47 10.5,-8.6 13.77,-15.41l32.85 0c-4.76,14.56 -13.09,25.88 -24.99,33.98 -11.91,8.09 -25.88,12.14 -41.94,12.14 -1.37,0 -2.73,-0.03 -4.07,-0.1l-68.05 -68.05c-0.07,-1.48 -0.11,-2.98 -0.11,-4.49zm192.21 -79.58l0 151 -28.56 0 0 -151 28.56 0zm42.65 24.48c-5.03,0 -9.21,-1.59 -12.55,-4.79 -3.33,-3.2 -5,-7.18 -5,-11.94 0,-4.76 1.67,-8.74 5,-11.93 3.34,-3.2 7.52,-4.8 12.55,-4.8 5.03,0 9.22,1.6 12.55,4.8 3.33,3.19 5,7.17 5,11.93 0,4.76 -1.67,8.74 -5,11.94 -3.33,3.2 -7.52,4.79 -12.55,4.79zm14.08 13.47l0 113.05 -28.57 0 0 -113.05 28.57 0zm95.09 113.05l-38.36 -48.16 0 48.16 -28.57 0 0 -151 28.57 0 0 85.9 37.95 -47.95 37.14 0 -49.79 56.73 50.2 56.32 -37.14 0zm66.72 -126.52c-5.03,0 -9.21,-1.59 -12.55,-4.79 -3.33,-3.2 -5,-7.18 -5,-11.94 0,-4.76 1.67,-8.74 5,-11.93 3.34,-3.2 7.52,-4.8 12.55,-4.8 5.04,0 9.22,1.6 12.55,4.8 3.33,3.19 5,7.17 5,11.93 0,4.76 -1.67,8.74 -5,11.94 -3.33,3.2 -7.51,4.79 -12.55,4.79zm14.08 13.47l0 113.05 -28.57 0 0 -113.05 28.57 0zm61.42 23.47l0 54.68c0,3.81 0.92,6.57 2.76,8.27 1.83,1.7 4.93,2.55 9.28,2.55l13.26 0 0 24.08 -17.95 0c-24.08,0 -36.12,-11.7 -36.12,-35.1l0 -54.48 -13.47 0 0 -23.47 13.47 0 0 -27.95 28.77 0 0 27.95 25.3 0 0 23.47 -25.3 0z"/>
   <polygon class="fil1" points="0.16,143.82 25.52,118.46 0.13,93.07 0.13,93.07 68.16,93.07 68.16,161.11 42.77,135.72 17.42,161.07 "/>
  </g>
 </g>
</svg>
