<?xml version="1.0" encoding="UTF-8"?>
<!DOCTYPE svg PUBLIC "-//W3C//DTD SVG 1.1//EN" "http://www.w3.org/Graphics/SVG/1.1/DTD/svg11.dtd">
<!-- Creator: CorelDRAW (Versión de evaluación) -->
<svg xmlns="http://www.w3.org/2000/svg" xml:space="preserve" width="512px" height="512px" version="1.1" style="shape-rendering:geometricPrecision; text-rendering:geometricPrecision; image-rendering:optimizeQuality; fill-rule:evenodd; clip-rule:evenodd"
viewBox="0 0 512 512"
 xmlns:xlink="http://www.w3.org/1999/xlink"
 xmlns:xodm="http://www.corel.com/coreldraw/odm/2003">
 <defs>
  <style type="text/css">
   <![CDATA[
    .str0 {stroke:#373435;stroke-width:0.49;stroke-miterlimit:22.9256}
    .fil1 {fill:#FEFEFE}
    .fil0 {fill:#373435}
    .fil2 {fill:#8F66FF}
   ]]>
  </style>
 </defs>
 <g id="Capa_x0020_1">
  <metadata id="CorelCorpID_0Corel-Layer"/>
  <rect class="fil0 str0" x="7.64" y="7.98" width="496.38" height="496.38" rx="75.64" ry="75.64"/>
  <g id="_2033155893376">
   <path class="fil1" d="M56.93 262.36c0,-10.89 2.46,-20.65 7.38,-29.27 4.92,-8.62 11.63,-15.34 20.15,-20.15 8.52,-4.82 18.06,-7.22 28.64,-7.22 12.38,0 23.22,3.17 32.53,9.52 9.31,6.34 15.81,15.12 19.52,26.34l-25.55 0c-2.54,-5.29 -6.11,-9.26 -10.71,-11.9 -4.6,-2.65 -9.92,-3.97 -15.95,-3.97 -6.45,0 -12.19,1.51 -17.21,4.52 -5.03,3.02 -8.94,7.27 -11.75,12.77 -2.8,5.5 -4.2,11.96 -4.2,19.36 0,7.3 1.4,13.73 4.2,19.28 2.81,5.55 6.72,9.84 11.75,12.85 5.02,3.02 10.76,4.53 17.21,4.53 6.03,0 11.35,-1.35 15.95,-4.05 4.6,-2.7 8.17,-6.69 10.71,-11.98l25.55 0c-3.71,11.32 -10.19,20.12 -19.44,26.42 -9.26,6.29 -20.13,9.44 -32.61,9.44 -1.07,0 -2.12,-0.03 -3.17,-0.07l-52.91 -52.92c-0.06,-1.15 -0.09,-2.32 -0.09,-3.5zm149.47 -61.88l0 117.42 -22.21 0 0 -117.42 22.21 0zm33.16 19.04c-3.91,0 -7.16,-1.24 -9.76,-3.73 -2.59,-2.48 -3.88,-5.58 -3.88,-9.28 0,-3.7 1.29,-6.8 3.88,-9.28 2.6,-2.49 5.85,-3.73 9.76,-3.73 3.92,0 7.17,1.24 9.76,3.73 2.59,2.48 3.89,5.58 3.89,9.28 0,3.7 -1.3,6.8 -3.89,9.28 -2.59,2.49 -5.84,3.73 -9.76,3.73zm10.95 10.47l0 87.91 -22.21 0 0 -87.91 22.21 0zm73.94 87.91l-29.83 -37.45 0 37.45 -22.21 0 0 -117.42 22.21 0 0 66.8 29.51 -37.29 28.88 0 -38.71 44.11 39.03 43.8 -28.88 0zm51.89 -98.38c-3.92,0 -7.17,-1.24 -9.76,-3.73 -2.59,-2.48 -3.89,-5.58 -3.89,-9.28 0,-3.7 1.3,-6.8 3.89,-9.28 2.59,-2.49 5.84,-3.73 9.76,-3.73 3.91,0 7.16,1.24 9.76,3.73 2.59,2.48 3.88,5.58 3.88,9.28 0,3.7 -1.29,6.8 -3.88,9.28 -2.6,2.49 -5.85,3.73 -9.76,3.73zm10.95 10.47l0 87.91 -22.22 0 0 -87.91 22.22 0zm47.76 18.25l0 42.52c0,2.97 0.71,5.11 2.14,6.43 1.43,1.32 3.83,1.98 7.22,1.98l10.31 0 0 18.73 -13.96 0c-18.72,0 -28.09,-9.1 -28.09,-27.29l0 -42.37 -10.47 0 0 -18.25 10.47 0 0 -21.73 22.38 0 0 21.73 19.67 0 0 18.25 -19.67 0z"/>
   <polygon class="fil2" points="57.06,305.33 76.77,285.62 57.03,265.87 57.03,265.87 109.93,265.87 109.93,318.78 90.19,299.03 70.47,318.75 "/>
  </g>
 </g>
</svg>
